<?xml version="1.0" encoding="UTF-8" standalone="no"?>
<!-- Created with Inkscape (http://www.inkscape.org/) -->
<svg xmlns:dc="http://purl.org/dc/elements/1.1/" xmlns:cc="http://creativecommons.org/ns#" xmlns:rdf="http://www.w3.org/1999/02/22-rdf-syntax-ns#" xmlns:svg="http://www.w3.org/2000/svg" xmlns="http://www.w3.org/2000/svg" xmlns:xlink="http://www.w3.org/1999/xlink" xmlns:sodipodi="http://sodipodi.sourceforge.net/DTD/sodipodi-0.dtd" xmlns:inkscape="http://www.inkscape.org/namespaces/inkscape" width="670.54688" height="583.53485" id="svg1684" sodipodi:version="0.32" inkscape:version="0.45+devel" sodipodi:docbase="/home/yves/Desktop" sodipodi:docname="star2.svg" inkscape:output_extension="org.inkscape.output.svg.inkscape" version="1.0">
  <defs id="defs1686">
    <linearGradient id="linearGradient5357">
      <stop style="stop-color:#00acff;stop-opacity:0.99607843;" offset="0" id="stop5359"/>
      <stop style="stop-color:#fafafa;stop-opacity:0;" offset="1" id="stop5361"/>
    </linearGradient>
    <radialGradient inkscape:collect="always" xlink:href="#linearGradient5357" id="radialGradient1723" gradientUnits="userSpaceOnUse" gradientTransform="matrix(0.340019, 0.738844, -0.538089, 0.247631, -13.9678, -383.765)" cx="699.69464" cy="-297.37183" fx="699.69482" fy="-297.3735" r="184.08015"/>
    <linearGradient id="linearGradient5347">
      <stop id="stop5349" offset="0" style="stop-color:#ff0000;stop-opacity:0.99607843;"/>
      <stop id="stop5351" offset="1" style="stop-color:#fafafa;stop-opacity:0;"/>
    </linearGradient>
    <radialGradient inkscape:collect="always" xlink:href="#linearGradient5347" id="radialGradient1721" gradientUnits="userSpaceOnUse" gradientTransform="matrix(0.849047, 0.0401229, -0.0279618, 0.591675, -196.458, 210.253)" cx="563.6123" cy="-69.194725" fx="563.61249" fy="-69.196396" r="184.08015"/>
    <linearGradient id="linearGradient5321">
      <stop style="stop-color:#050000;stop-opacity:0.99327356;" offset="0" id="stop5323"/>
      <stop style="stop-color:#fafafa;stop-opacity:0;" offset="1" id="stop5325"/>
    </linearGradient>
    <radialGradient inkscape:collect="always" xlink:href="#linearGradient5321" id="radialGradient1719" gradientUnits="userSpaceOnUse" gradientTransform="matrix(0.299161, -0.760548, 0.551224, 0.216825, 153.476, 635.628)" cx="427.8389" cy="111.08836" fx="427.83905" fy="111.08669" r="184.08015"/>
    <linearGradient id="linearGradient5305">
      <stop style="stop-color:#f6fa07;stop-opacity:1;" offset="0" id="stop5307"/>
      <stop style="stop-color:#fffffa;stop-opacity:0;" offset="1" id="stop5309"/>
    </linearGradient>
    <radialGradient inkscape:collect="always" xlink:href="#linearGradient5305" id="radialGradient1717" gradientUnits="userSpaceOnUse" gradientTransform="matrix(-0.480039, -0.945151, 0.635015, -0.322522, 440.976, 511.267)" cx="109.46884" cy="154.01411" fx="109.46899" fy="154.01247" r="184.08015"/>
    <linearGradient id="linearGradient4418">
      <stop style="stop-color:#07f605;stop-opacity:1;" offset="0" id="stop4420"/>
      <stop style="stop-color:#fdfdfd;stop-opacity:0;" offset="1" id="stop4422"/>
    </linearGradient>
    <radialGradient inkscape:collect="always" xlink:href="#linearGradient4418" id="radialGradient1715" gradientUnits="userSpaceOnUse" gradientTransform="matrix(-0.983234, -0.18235, 0.108013, -0.582404, 730.306, 486.598)" cx="169.85223" cy="369.04691" fx="169.85239" fy="369.04523" r="184.08015"/>
    <linearGradient id="linearGradient22519">
      <stop id="stop22521" offset="0" style="stop-color:#ffffff;stop-opacity:1;"/>
      <stop id="stop22523" offset="1" style="stop-color:#ffffff;stop-opacity:0;"/>
    </linearGradient>
    <radialGradient inkscape:collect="always" xlink:href="#linearGradient22519" id="radialGradient1713" gradientUnits="userSpaceOnUse" gradientTransform="matrix(-0.733657, -0.203648, 0.157574, -0.567671, 637.576, 483.931)" cx="248.29507" cy="616.43903" fx="248.29523" fy="616.43732" r="185.08015"/>
  </defs>
  <sodipodi:namedview id="base" pagecolor="#ffffff" bordercolor="#666666" borderopacity="1.0" inkscape:pageopacity="0.0" inkscape:pageshadow="2" inkscape:zoom="0.35" inkscape:cx="375" inkscape:cy="520" inkscape:document-units="px" inkscape:current-layer="layer1" inkscape:window-width="838" inkscape:window-height="664" inkscape:window-x="180" inkscape:window-y="0" showgrid="false"/>
  <metadata id="metadata1689">
    <rdf:RDF>
      <cc:Work rdf:about="">
        <dc:format>image/svg+xml</dc:format>
        <dc:type rdf:resource="http://purl.org/dc/dcmitype/StillImage"/>
      </cc:Work>
    </rdf:RDF>
  </metadata>
  <g inkscape:label="Calque 1" inkscape:groupmode="layer" id="layer1" transform="translate(-36.7738, -234.414)">
    <g transform="matrix(2.3308, 0, 0, 2.3308, -4638.48, 647.245)" id="g8006">
      <path sodipodi:type="star" style="opacity:1;fill:url(#radialGradient1713);fill-opacity:1;fill-rule:nonzero;stroke:#000000;stroke-width:2;stroke-linecap:round;stroke-linejoin:round;marker:none;marker-start:none;marker-mid:none;marker-end:none;stroke-miterlimit:4;stroke-dasharray:none;stroke-dashoffset:0;stroke-opacity:1;visibility:visible;display:inline;overflow:visible" id="path3505" sodipodi:sides="6" sodipodi:cx="440.44183" sodipodi:cy="212.45982" sodipodi:r1="179.05257" sodipodi:r2="95.8564" sodipodi:arg1="1.048962" sodipodi:arg2="2.0458037" inkscape:flatsided="false" inkscape:rounded="0.35" inkscape:randomized="0.05" d="M 524.62031,366.75196 C 472.72797,370.26167 450.37337,292.64539 398.70649,289.00401 C 370.03022,286.98296 364.73421,386.64841 349.67789,361.15002 C 322.55049,315.20882 369.26394,260.25067 346.07402,212.42475 C 333.2031,185.8803 242.96625,240.7932 257.88185,215.46456 C 284.75574,169.8292 363.42227,174.20347 391.88967,129.81681 C 407.68971,105.18123 321.05768,53.426377 350.54604,51.620336 C 403.6761,48.36634 431.28552,123.21748 484.5023,119.58576 C 514.0388,117.57008 518.53504,26.293764 533.54961,50.969114 C 560.6018,95.427421 511.67956,162.66989 536.18822,209.33524 C 549.79108,235.23555 635.83653,181.75202 623.10185,207.54587 C 600.1574,254.01942 519.76851,240.73352 490.07772,285.09957 C 473.59867,309.72371 553.42171,364.80399 524.62031,366.75196 z" transform="matrix(0.777203, 0, 0, 0.777203, 1807.5, -212.67)"/>
      <path sodipodi:type="star" style="opacity:1;fill:url(#radialGradient1715);fill-opacity:1;fill-rule:nonzero;stroke:none;stroke-width:2;stroke-linecap:round;stroke-linejoin:round;marker:none;marker-start:none;marker-mid:none;marker-end:none;stroke-miterlimit:4;stroke-dasharray:none;stroke-dashoffset:0;stroke-opacity:1;visibility:visible;display:inline;overflow:visible" id="path3507" sodipodi:sides="6" sodipodi:cx="440.44183" sodipodi:cy="212.45982" sodipodi:r1="179.05257" sodipodi:r2="95.8564" sodipodi:arg1="1.048962" sodipodi:arg2="2.0458037" inkscape:flatsided="false" inkscape:rounded="0.35" inkscape:randomized="0.05" d="M 524.62031,366.75196 C 472.72797,370.26167 450.37337,292.64539 398.70649,289.00401 C 370.03022,286.98296 364.73421,386.64841 349.67789,361.15002 C 322.55049,315.20882 369.26394,260.25067 346.07402,212.42475 C 333.2031,185.8803 242.96625,240.7932 257.88185,215.46456 C 284.75574,169.8292 363.42227,174.20347 391.88967,129.81681 C 407.68971,105.18123 321.05768,53.426377 350.54604,51.620336 C 403.6761,48.36634 431.28552,123.21748 484.5023,119.58576 C 514.0388,117.57008 518.53504,26.293764 533.54961,50.969114 C 560.6018,95.427421 511.67956,162.66989 536.18822,209.33524 C 549.79108,235.23555 635.83653,181.75202 623.10185,207.54587 C 600.1574,254.01942 519.76851,240.73352 490.07772,285.09957 C 473.59867,309.72371 553.42171,364.80399 524.62031,366.75196 z" transform="matrix(0.777203, 0, 0, 0.777203, 1807.5, -212.67)"/>
      <path sodipodi:type="star" style="opacity:1;fill:url(#radialGradient1717);fill-opacity:1;fill-rule:nonzero;stroke:none;stroke-width:2;stroke-linecap:round;stroke-linejoin:round;marker:none;marker-start:none;marker-mid:none;marker-end:none;stroke-miterlimit:4;stroke-dasharray:none;stroke-dashoffset:0;stroke-opacity:1;visibility:visible;display:inline;overflow:visible" id="path3511" sodipodi:sides="6" sodipodi:cx="440.44183" sodipodi:cy="212.45982" sodipodi:r1="179.05257" sodipodi:r2="95.8564" sodipodi:arg1="1.048962" sodipodi:arg2="2.0458037" inkscape:flatsided="false" inkscape:rounded="0.35" inkscape:randomized="0.05" d="M 524.62031,366.75196 C 472.72797,370.26167 450.37337,292.64539 398.70649,289.00401 C 370.03022,286.98296 364.73421,386.64841 349.67789,361.15002 C 322.55049,315.20882 369.26394,260.25067 346.07402,212.42475 C 333.2031,185.8803 242.96625,240.7932 257.88185,215.46456 C 284.75574,169.8292 363.42227,174.20347 391.88967,129.81681 C 407.68971,105.18123 321.05768,53.426377 350.54604,51.620336 C 403.6761,48.36634 431.28552,123.21748 484.5023,119.58576 C 514.0388,117.57008 518.53504,26.293764 533.54961,50.969114 C 560.6018,95.427421 511.67956,162.66989 536.18822,209.33524 C 549.79108,235.23555 635.83653,181.75202 623.10185,207.54587 C 600.1574,254.01942 519.76851,240.73352 490.07772,285.09957 C 473.59867,309.72371 553.42171,364.80399 524.62031,366.75196 z" transform="matrix(0.777203, 0, 0, 0.777203, 1807.5, -212.67)"/>
      <path transform="matrix(0.777203, 0, 0, 0.777203, 1807.5, -212.67)" d="M 524.62031,366.75196 C 472.72797,370.26167 450.37337,292.64539 398.70649,289.00401 C 370.03022,286.98296 364.73421,386.64841 349.67789,361.15002 C 322.55049,315.20882 369.26394,260.25067 346.07402,212.42475 C 333.2031,185.8803 242.96625,240.7932 257.88185,215.46456 C 284.75574,169.8292 363.42227,174.20347 391.88967,129.81681 C 407.68971,105.18123 321.05768,53.426377 350.54604,51.620336 C 403.6761,48.36634 431.28552,123.21748 484.5023,119.58576 C 514.0388,117.57008 518.53504,26.293764 533.54961,50.969114 C 560.6018,95.427421 511.67956,162.66989 536.18822,209.33524 C 549.79108,235.23555 635.83653,181.75202 623.10185,207.54587 C 600.1574,254.01942 519.76851,240.73352 490.07772,285.09957 C 473.59867,309.72371 553.42171,364.80399 524.62031,366.75196 z" inkscape:randomized="0.05" inkscape:rounded="0.35" inkscape:flatsided="false" sodipodi:arg2="2.0458037" sodipodi:arg1="1.048962" sodipodi:r2="95.8564" sodipodi:r1="179.05257" sodipodi:cy="212.45982" sodipodi:cx="440.44183" sodipodi:sides="6" id="path5343" style="opacity:1;fill:url(#radialGradient1719);fill-opacity:1;fill-rule:nonzero;stroke:none;stroke-width:2;stroke-linecap:round;stroke-linejoin:round;marker:none;marker-start:none;marker-mid:none;marker-end:none;stroke-miterlimit:4;stroke-dasharray:none;stroke-dashoffset:0;stroke-opacity:1;visibility:visible;display:inline;overflow:visible" sodipodi:type="star"/>
      <path transform="matrix(0.777203, 0, 0, 0.777203, 1807.5, -212.67)" d="M 524.62031,366.75196 C 472.72797,370.26167 450.37337,292.64539 398.70649,289.00401 C 370.03022,286.98296 364.73421,386.64841 349.67789,361.15002 C 322.55049,315.20882 369.26394,260.25067 346.07402,212.42475 C 333.2031,185.8803 242.96625,240.7932 257.88185,215.46456 C 284.75574,169.8292 363.42227,174.20347 391.88967,129.81681 C 407.68971,105.18123 321.05768,53.426377 350.54604,51.620336 C 403.6761,48.36634 431.28552,123.21748 484.5023,119.58576 C 514.0388,117.57008 518.53504,26.293764 533.54961,50.969114 C 560.6018,95.427421 511.67956,162.66989 536.18822,209.33524 C 549.79108,235.23555 635.83653,181.75202 623.10185,207.54587 C 600.1574,254.01942 519.76851,240.73352 490.07772,285.09957 C 473.59867,309.72371 553.42171,364.80399 524.62031,366.75196 z" inkscape:randomized="0.05" inkscape:rounded="0.35" inkscape:flatsided="false" sodipodi:arg2="2.0458037" sodipodi:arg1="1.048962" sodipodi:r2="95.8564" sodipodi:r1="179.05257" sodipodi:cy="212.45982" sodipodi:cx="440.44183" sodipodi:sides="6" id="path5353" style="opacity:1;fill:url(#radialGradient1721);fill-opacity:1;fill-rule:nonzero;stroke:none;stroke-width:2;stroke-linecap:round;stroke-linejoin:round;marker:none;marker-start:none;marker-mid:none;marker-end:none;stroke-miterlimit:4;stroke-dasharray:none;stroke-dashoffset:0;stroke-opacity:1;visibility:visible;display:inline;overflow:visible" sodipodi:type="star"/>
      <path sodipodi:type="star" style="opacity:1;fill:url(#radialGradient1723);fill-opacity:1;fill-rule:nonzero;stroke:none;stroke-width:2;stroke-linecap:round;stroke-linejoin:round;marker:none;marker-start:none;marker-mid:none;marker-end:none;stroke-miterlimit:4;stroke-dasharray:none;stroke-dashoffset:0;stroke-opacity:1;visibility:visible;display:inline;overflow:visible" id="path3513" sodipodi:sides="6" sodipodi:cx="440.44183" sodipodi:cy="212.45982" sodipodi:r1="179.05257" sodipodi:r2="95.8564" sodipodi:arg1="1.048962" sodipodi:arg2="2.0458037" inkscape:flatsided="false" inkscape:rounded="0.35" inkscape:randomized="0.05" d="M 524.62031,366.75196 C 472.72797,370.26167 450.37337,292.64539 398.70649,289.00401 C 370.03022,286.98296 364.73421,386.64841 349.67789,361.15002 C 322.55049,315.20882 369.26394,260.25067 346.07402,212.42475 C 333.2031,185.8803 242.96625,240.7932 257.88185,215.46456 C 284.75574,169.8292 363.42227,174.20347 391.88967,129.81681 C 407.68971,105.18123 321.05768,53.426377 350.54604,51.620336 C 403.6761,48.36634 431.28552,123.21748 484.5023,119.58576 C 514.0388,117.57008 518.53504,26.293764 533.54961,50.969114 C 560.6018,95.427421 511.67956,162.66989 536.18822,209.33524 C 549.79108,235.23555 635.83653,181.75202 623.10185,207.54587 C 600.1574,254.01942 519.76851,240.73352 490.07772,285.09957 C 473.59867,309.72371 553.42171,364.80399 524.62031,366.75196 z" transform="matrix(0.777203, 0, 0, 0.777203, 1807.5, -212.67)"/>
    </g>
  </g>
</svg>